<svg width="120" height="55" viewBox="0 0 120 55" fill="none" xmlns="http://www.w3.org/2000/svg">
<path d="M23.1815 55C18.4539 55 14.342 54.1658 10.8459 52.4973C7.34976 50.7901 4.66809 48.3845 2.80085 45.2804C0.933618 42.1764 0 38.5679 0 34.455C0 28.7513 1.09253 23.6878 3.27759 19.2645C5.50239 14.8413 8.50188 11.4268 12.2761 9.02116C16.0503 6.57672 20.2416 5.3545 24.8501 5.3545C29.1408 5.3545 32.3985 6.44092 34.6233 8.61376C36.8481 10.7478 37.9605 13.5802 37.9605 17.1111C37.9605 19.478 37.5235 21.3792 36.6495 22.8148C35.8152 24.2504 34.6035 24.9683 33.0143 24.9683C31.9019 24.9683 31.0279 24.716 30.3922 24.2116C29.7566 23.7072 29.4388 22.97 29.4388 22C29.4388 21.6508 29.5182 21.0106 29.6771 20.0794C29.9155 18.9153 30.0347 17.9841 30.0347 17.2857C30.0347 13.7549 28.1079 11.9894 24.2542 11.9894C21.6321 11.9894 19.1292 12.8236 16.7455 14.4921C14.3618 16.1605 12.435 18.6243 10.965 21.8836C9.49509 25.1041 8.76012 28.9453 8.76012 33.4074C8.76012 38.0635 10.091 41.672 12.7528 44.2328C15.4146 46.7548 19.3477 48.0159 24.5522 48.0159C27.1345 48.0159 29.7367 47.7055 32.3588 47.0847C35.0206 46.425 37.9605 45.4356 41.1785 44.1164C41.7744 43.8836 42.271 43.7672 42.6683 43.7672C43.304 43.7672 43.7807 44 44.0985 44.4656C44.4164 44.9312 44.5753 45.5326 44.5753 46.2698C44.5753 48.6367 43.2643 50.3827 40.6422 51.5079C37.8215 52.7108 34.8816 53.6032 31.8225 54.1852C28.8031 54.7284 25.9228 55 23.1815 55Z" fill="#595043"/>
<path d="M72.974 41.7302C73.4904 41.7302 73.8877 41.963 74.1658 42.4286C74.4837 42.8942 74.6426 43.5344 74.6426 44.3492C74.6426 45.9012 74.2651 47.1041 73.5103 47.9577C71.6828 50.0141 69.7957 51.7019 67.849 53.0212C65.942 54.3404 63.757 55 61.2938 55C59.2677 55 57.7381 54.4374 56.7052 53.3122C55.6722 52.1481 55.1558 50.4797 55.1558 48.3069C55.1558 47.2205 55.4339 45.2804 55.9901 42.4868C56.5065 40.0423 56.7648 38.3545 56.7648 37.4233C56.7648 36.8025 56.5463 36.4921 56.1093 36.4921C55.5928 36.4921 54.8578 37.1517 53.9043 38.4709C52.9508 39.7513 51.9974 41.4586 51.0439 43.5926C50.0904 45.7266 49.3157 47.9771 48.7198 50.3439C47.9649 53.448 46.0977 55 43.1181 55C41.9262 55 41.1316 54.5926 40.7344 53.7778C40.3768 52.9242 40.198 51.4109 40.198 49.2381C40.198 47.9965 40.2179 47.0071 40.2576 46.2698L40.3172 41.6138C40.3172 35.6385 40.933 29.4109 42.1646 22.9312C43.4359 16.4515 45.2833 11.0194 47.7067 6.63492C50.1699 2.21164 53.1098 0 56.5264 0C58.3539 0 59.8239 0.776014 60.9363 2.32804C62.0884 3.84127 62.6644 5.82011 62.6644 8.26455C62.6644 12.1834 61.4925 16.2575 59.1485 20.4868C56.8045 24.6772 52.9906 29.5855 47.7067 35.2116C47.5875 37.2293 47.5279 39.3051 47.5279 41.4392C48.839 38.1411 50.289 35.4638 51.8782 33.4074C53.507 31.3122 55.0962 29.8183 56.6456 28.9259C58.2347 28.0335 59.6848 27.5873 60.9958 27.5873C63.5782 27.5873 64.8694 28.8483 64.8694 31.3704C64.8694 32.8836 64.4324 35.619 63.5583 39.5767C62.8035 42.9524 62.4261 45.1834 62.4261 46.2698C62.4261 47.8219 63.0021 48.5979 64.1543 48.5979C64.9488 48.5979 65.8824 48.1323 66.9551 47.2011C68.0675 46.231 69.5375 44.679 71.365 42.545C71.8417 42.0018 72.378 41.7302 72.974 41.7302ZM55.275 5.76191C54.5598 5.76191 53.7653 6.77072 52.8913 8.78836C52.0172 10.7672 51.1631 13.4638 50.3288 16.8783C49.5342 20.254 48.8787 23.94 48.3622 27.9365C50.8254 25.1041 52.8515 22.0194 54.4407 18.6825C56.0695 15.3457 56.884 12.3192 56.884 9.60318C56.884 8.36155 56.7449 7.41093 56.4668 6.75132C56.1887 6.09171 55.7914 5.76191 55.275 5.76191Z" fill="#595043"/>
<path d="M100.205 36.8413C100.721 36.8413 101.119 37.0935 101.397 37.5979C101.675 38.1023 101.814 38.7425 101.814 39.5185C101.814 41.381 101.238 42.4868 100.086 42.836C97.7021 43.6508 95.08 44.1164 92.2196 44.2328C91.4648 47.4921 89.9749 50.1111 87.7501 52.0899C85.5254 54.03 83.0026 55 80.1819 55C77.7982 55 75.7522 54.4374 74.0438 53.3122C72.3753 52.1869 71.1039 50.6931 70.2299 48.8307C69.3559 46.9683 68.9189 44.9506 68.9189 42.7778C68.9189 39.8289 69.4949 37.2099 70.6471 34.9206C71.7992 32.5926 73.3883 30.7884 75.4145 29.5079C77.4406 28.1887 79.6853 27.5291 82.1484 27.5291C85.1678 27.5291 87.5912 28.5573 89.4187 30.6138C91.286 32.6314 92.3785 35.134 92.6963 38.1217C94.5636 38.0053 96.7884 37.6173 99.3707 36.9577C99.6885 36.8801 99.9666 36.8413 100.205 36.8413ZM80.6586 48.8307C81.9299 48.8307 83.0225 48.3263 83.9362 47.3175C84.8897 46.3086 85.5254 44.8536 85.8432 42.9524C84.6116 42.1376 83.6581 41.0705 82.9827 39.7513C82.3471 38.4321 82.0293 37.0353 82.0293 35.5608C82.0293 34.94 82.0889 34.3192 82.208 33.6984H81.9101C80.3209 33.6984 78.99 34.455 77.9174 35.9683C76.8844 37.4427 76.368 39.5379 76.368 42.254C76.368 44.388 76.7851 46.0176 77.6194 47.1429C78.4934 48.2681 79.5065 48.8307 80.6586 48.8307Z" fill="#595043"/>
<path d="M102.897 55C101.03 55 99.52 54.2628 98.3679 52.7884C97.2555 51.2751 96.6993 49.1993 96.6993 46.5608C96.6993 43.6508 96.8979 40.9929 97.2952 38.5873C97.6925 36.1429 98.348 33.5626 99.2618 30.8466C99.659 29.6825 100.215 28.8483 100.93 28.3439C101.645 27.8395 102.778 27.5873 104.327 27.5873C105.201 27.5873 105.797 27.7231 106.115 27.9947C106.472 28.2663 106.651 28.6737 106.651 29.2169C106.651 29.5273 106.433 30.575 105.996 32.3598C105.598 33.7954 105.281 35.0952 105.042 36.2593C104.248 40.3333 103.85 43.0494 103.85 44.4074C103.85 45.2222 103.95 45.8042 104.148 46.1534C104.347 46.4638 104.665 46.619 105.102 46.619C105.698 46.619 106.453 46.037 107.366 44.873C108.28 43.6702 109.234 41.8854 110.227 39.5185C111.26 37.1129 112.233 34.2222 113.147 30.8466C113.465 29.6825 113.941 28.8483 114.577 28.3439C115.252 27.8395 116.246 27.5873 117.557 27.5873C118.431 27.5873 119.047 27.8201 119.404 28.2857C119.801 28.7125 120 29.3721 120 30.2646C120 31.2346 119.921 32.321 119.762 33.5238C119.603 34.6878 119.424 35.8907 119.225 37.1323C118.828 39.6155 118.51 41.8854 118.272 43.9418C118.033 45.9594 117.914 48.2681 117.914 50.8677C117.914 52.3421 117.596 53.4092 116.961 54.0688C116.365 54.6896 115.372 55 113.981 55C112.511 55 111.478 54.6314 110.882 53.8942C110.326 53.1182 110.048 51.6437 110.048 49.4709C110.048 49.0441 110.088 48.0935 110.167 46.619C109.492 49.3351 108.479 51.4109 107.128 52.8466C105.817 54.2822 104.407 55 102.897 55Z" fill="#595043"/>
</svg>
